<?xml version="1.0" encoding="UTF-8"?>
<svg width="15px" height="14px" viewBox="0 0 15 14" version="1.1" xmlns="http://www.w3.org/2000/svg" xmlns:xlink="http://www.w3.org/1999/xlink">
    <!-- Generator: Sketch 54.1 (76490) - https://sketchapp.com -->
    <title>001-heart</title>
    <desc>Created with Sketch.</desc>
    <g id="UI-Fitness-App" stroke="none" stroke-width="1" fill="none" fill-rule="evenodd">
        <g id="Community-Tab" transform="translate(-30.000000, -807.000000)" fill-rule="nonzero" stroke="#FF7565">
            <g id="Post-Block" transform="translate(10.000000, 249.000000)">
                <g id="Group-7" transform="translate(21.000000, 559.000000)">
                    <g id="001-heart">
                        <path d="M11.9687042,1.13186646 C11.2957535,0.401985162 10.3723679,0 9.36844634,0 C8.61803437,0 7.93080138,0.237243652 7.32579042,0.705085748 C7.02050781,0.941238391 6.74388886,1.23015595 6.5,1.56737519 C6.25621034,1.23025513 5.97949219,0.941238391 5.67411041,0.705085748 C5.06919862,0.237243652 4.38196563,0 3.63155366,0 C2.62763213,0 1.70414735,0.401985162 1.03119659,1.13186646 C0.366279596,1.85321807 8.8817842e-16,2.83869171 8.8817842e-16,3.90688325 C8.8817842e-16,5.00631714 0.409721381,6.01271821 1.28936768,7.07416534 C2.0762787,8.02363585 3.2072525,8.98748779 4.51695253,10.1035843 C4.96416474,10.4847412 5.47108458,10.9167786 5.99744415,11.3769836 C6.1364975,11.4987793 6.31492616,11.5658264 6.5,11.5658264 C6.68497466,11.5658264 6.8635025,11.4987793 7.00235748,11.377182 C7.52871704,10.9168777 8.03593446,10.484642 8.48334503,10.1032867 C9.79284668,8.98738862 10.9238205,8.02363585 11.7107315,7.07406616 C12.5903778,6.01271821 13,5.00631714 13,3.90678407 C13,2.83869171 12.6337204,1.85321807 11.9687042,1.13186646 Z" id="Path"></path>
                    </g>
                </g>
            </g>
        </g>
    </g>
</svg>