<svg xmlns="http://www.w3.org/2000/svg" enable-background="new 0 0 32 32" viewBox="0 0 32 32"><path d="M26,7h-1V6c0-1.6543-1.3457-3-3-3H6C4.3457,3,3,4.3457,3,6v16c0,1.6543,1.3457,3,3,3h1v1c0,1.6543,1.3457,3,3,3h16c1.6543,0,3-1.3457,3-3V10C29,8.3457,27.6543,7,26,7z M6,5h16c0.5518,0,1,0.4487,1,1v5.6237l-6.1006,6.973l-6.249-5.356c-0.3965-0.3403-0.9883-0.3179-1.3574,0.0522L5,17.5859V6C5,5.4487,5.4482,5,6,5z M27,26c0,0.5513-0.4482,1-1,1H10c-0.5518,0-1-0.4487-1-1v-1h13c1.6543,0,3-1.3457,3-3V9h1c0.5518,0,1,0.4487,1,1V26z"/><path d="M16,13c1.6543,0,3-1.3457,3-3s-1.3457-3-3-3s-3,1.3457-3,3S14.3457,13,16,13z"/></svg>