<svg xmlns="http://www.w3.org/2000/svg" width="32" height="32" enable-background="new 0 0 32 32" viewBox="0 0 32 32"><path d="M19.065,30.114L30.963,2.456c0.271-0.781-0.455-1.584-1.314-1.314L2.145,12.931c-0.854,0.363-1.222,1.305-1.157,2.104c0.062,0.744,0.483,1.568,1.385,1.766l11.088,1.844l1.986,11.357C16.51,31.194,18.034,31.194,19.065,30.114z M25.663,5.026l-11.684,11.68L3.103,14.892c0.038-0.104,0.068-0.18,0.104-0.242L25.663,5.026z M27.075,6.44l-9.606,22.42c-0.091,0.059-0.185,0.025-0.281,0l-1.789-10.736L27.075,6.44z"/></svg>